####
#
# OBJ File Generated by Meshlab
#
####
# Object expo_dry_erase_board_eraser.obj
#
# Vertices: 8
# Faces: 12
#
####
vn -1.570797 1.570797 -1.570797
v 0.000000 0.055000 0.000000 0.752941 0.752941 0.752941
vn -1.570797 -1.570797 1.570797
v 0.000000 0.000000 0.035000 0.752941 0.752941 0.752941
vn -1.570797 1.570797 1.570797
v 0.000000 0.055000 0.035000 0.752941 0.752941 0.752941
vn 1.570797 -1.570797 1.570797
v 0.130000 0.000000 0.035000 0.752941 0.752941 0.752941
vn 1.570797 1.570797 1.570797
v 0.130000 0.055000 0.035000 0.752941 0.752941 0.752941
vn 1.570797 1.570797 -1.570797
v 0.130000 0.055000 0.000000 0.752941 0.752941 0.752941
vn 1.570797 -1.570797 -1.570797
v 0.130000 0.000000 0.000000 0.752941 0.752941 0.752941
vn -1.570797 -1.570797 -1.570797
v 0.000000 0.000000 0.000000 0.752941 0.752941 0.752941
# 8 vertices, 0 vertices normals

f 3//3 1//1 2//2
f 2//2 1//1 8//8
f 5//5 3//3 4//4
f 4//4 3//3 2//2
f 6//6 5//5 7//7
f 7//7 5//5 4//4
f 1//1 6//6 8//8
f 8//8 6//6 7//7
f 5//5 6//6 3//3
f 3//3 6//6 1//1
f 7//7 4//4 8//8
f 8//8 4//4 2//2
# 12 faces, 0 coords texture

# End of File